<svg width="14" height="15" viewBox="0 0 14 15" fill="none" xmlns="http://www.w3.org/2000/svg">
<g clip-path="url(#clip0_43_3119)">
<path d="M12.0312 4.4375C12.3937 4.4375 12.6875 4.14369 12.6875 3.78125V1.15625C12.6875 0.793813 12.3937 0.5 12.0312 0.5C11.6688 0.5 11.375 0.793813 11.375 1.15625V2.31866C10.1945 1.321 8.66711 0.71875 7 0.71875C3.25482 0.71875 0.21875 3.75482 0.21875 7.5C0.21875 11.2452 3.25482 14.2812 7 14.2812C10.7452 14.2812 13.7812 11.2452 13.7812 7.5C13.7812 7.17173 13.7579 6.84854 13.7126 6.53208C13.6892 6.36865 13.66 6.20705 13.6252 6.04752C13.5479 5.69343 13.1982 5.46904 12.8441 5.54635C12.49 5.62366 12.2656 5.97338 12.3429 6.32748C12.3709 6.45596 12.3945 6.58616 12.4133 6.71792C12.4498 6.97302 12.4688 7.23411 12.4688 7.5C12.4688 10.5203 10.0203 12.9688 7 12.9688C3.97969 12.9688 1.53125 10.5203 1.53125 7.5C1.53125 4.47969 3.97969 2.03125 7 2.03125C8.23164 2.03125 9.36755 2.43784 10.2819 3.125H9.40625C9.04381 3.125 8.75 3.41881 8.75 3.78125C8.75 4.14369 9.04381 4.4375 9.40625 4.4375H12.0312Z" fill="#CBCACA"/>
</g>
<defs>
<clipPath id="clip0_43_3119">
<rect width="14" height="14" fill="white" transform="translate(0 0.5)"/>
</clipPath>
</defs>
</svg>
