<svg width="32" height="32" viewBox="0 0 32 32" fill="none" xmlns="http://www.w3.org/2000/svg">
<path d="M32.0136 16.0071C32.0136 19.1096 31.1272 22.153 29.4134 24.7532C29.0588 25.3146 28.6747 25.8169 28.2315 26.3192C27.2269 27.5011 26.0745 28.5057 24.804 29.3626C24.4494 29.599 24.0949 29.8058 23.7403 30.0127C21.8197 31.0764 19.6923 31.7264 17.5353 31.9333C17.033 31.9923 16.5307 31.9923 16.0284 31.9923C14.6396 31.9923 13.2509 31.8151 11.8917 31.4605C11.1235 31.2537 10.3848 30.9877 9.64609 30.6923C9.26198 30.5445 8.9074 30.3672 8.55283 30.1604C7.69595 29.7172 6.89817 29.1853 6.12993 28.5944C5.77536 28.3285 5.45034 28.033 5.12532 27.7375C-1.3456 21.7394 -1.72972 11.6045 4.26844 5.13363C10.2666 -1.33729 20.4014 -1.75095 26.8723 4.27675C30.1521 7.2906 32.0136 11.5454 32.0136 16.0071Z" fill="#E6E6E6"/>
<path d="M12.1281 17.455C12.1281 17.455 13.5759 21.503 12.4531 23.7782C11.3303 26.0533 14.2259 28.624 14.2259 28.624C14.2259 28.624 21.8492 24.7533 20.8741 22.8031C19.8991 20.853 18.2739 18.2823 18.599 16.6572L12.1281 17.455Z" fill="#FFB8B8"/>
<path d="M14.9646 18.9914C17.8204 18.9914 20.1355 16.6764 20.1355 13.8206C20.1355 10.9648 17.8204 8.64978 14.9646 8.64978C12.1089 8.64978 9.79382 10.9648 9.79382 13.8206C9.79382 16.6764 12.1089 18.9914 14.9646 18.9914Z" fill="#FFB8B8"/>
<path d="M11.8622 31.4605C11.094 31.2537 10.3553 30.9878 9.61658 30.6923L9.76431 26.7625L11.2121 23.5122C11.5372 23.7782 11.8917 23.985 12.2463 24.1918C12.335 24.2509 12.4236 24.2805 12.5122 24.3396C13.8714 24.9896 16.117 25.5806 18.274 23.9555C19.0718 23.335 19.7514 22.5667 20.2537 21.7098L24.3608 24.0145L24.5676 26.4965L24.804 29.3922C24.4494 29.6286 24.0949 29.8354 23.7403 30.0422C21.8197 31.106 19.6923 31.756 17.5353 31.9628C17.033 32.0219 16.5307 32.0219 16.0284 32.0219C14.6101 32.0219 13.2214 31.8151 11.8622 31.4605Z" fill="#575A89"/>
<path d="M12.8667 21.0894L12.6599 23.2168L12.5417 24.3396L12.394 25.9942L11.8621 31.4605C11.0939 31.2537 10.3552 30.9878 9.6165 30.6923C9.23238 30.5446 8.87781 30.3673 8.52324 30.1605C7.66636 29.7172 6.86858 29.1854 6.10034 28.5944L5.53894 25.9352L5.56849 25.9056L12.8667 21.0894Z" fill="#575A89"/>
<path d="M23.7403 30.0126C21.8197 31.0764 19.6922 31.7264 17.5353 31.9332C17.6535 29.9536 17.8308 28.0625 18.008 26.3783C18.0967 25.5214 18.2149 24.6941 18.3331 23.9554C18.6876 21.5916 19.0718 19.9665 19.3377 19.7596L21.1401 20.9415L28.4088 23.5122L28.261 26.3192C27.2564 27.5011 26.1041 28.5057 24.8335 29.3626C24.4494 29.599 24.0948 29.8354 23.7403 30.0126Z" fill="#575A89"/>
<path d="M6.12998 28.6239C5.77541 28.358 5.45039 28.0625 5.12537 27.767L5.39129 25.9646L5.59813 25.9351L6.5141 25.8169L8.52334 30.1899C7.696 29.7172 6.89822 29.2149 6.12998 28.6239Z" fill="#575A89"/>
<path d="M29.4134 24.7531C29.0588 25.3146 28.6747 25.8169 28.2315 26.3192C27.2269 27.5011 26.0745 28.5057 24.804 29.3626C24.4494 29.5989 24.0948 29.8058 23.7403 30.0126L23.563 29.1853L24.5972 26.4965L25.8382 23.2167L28.4383 23.5417C28.7634 23.9258 29.0884 24.3395 29.4134 24.7531Z" fill="#575A89"/>
<path d="M19.8991 9.12257C19.1013 7.85202 17.8898 6.9065 16.4715 6.49284L15.4078 7.34972L15.8215 6.37465C15.4669 6.31555 15.1419 6.31555 14.7873 6.31555L13.8418 7.527L14.2259 6.3451C12.5713 6.55193 11.0643 7.43836 10.0893 8.79755C8.87782 10.5409 8.67099 12.9638 9.85289 14.7071C10.1779 13.7024 10.562 12.7569 10.8871 11.7818C11.153 11.8114 11.3894 11.8114 11.6553 11.7818L12.0394 10.8659L12.1576 11.7523C13.3986 11.6341 15.201 11.3977 16.3829 11.1909L16.2647 10.5113L16.9443 11.0727C17.2989 10.9841 17.5057 10.925 17.5057 10.8659C18.3626 12.2546 19.2195 13.141 20.1059 14.5593C20.4309 12.5501 20.9923 10.925 19.8991 9.12257Z" fill="#2F2E41"/>
<path d="M19.6036 14.3525C19.7994 14.3525 19.9582 14.035 19.9582 13.6433C19.9582 13.2517 19.7994 12.9342 19.6036 12.9342C19.4078 12.9342 19.249 13.2517 19.249 13.6433C19.249 14.035 19.4078 14.3525 19.6036 14.3525Z" fill="#FFB8B8"/>
</svg>
