<svg width="16" height="16" viewBox="0 0 16 16" fill="none" xmlns="http://www.w3.org/2000/svg">
<path d="M6.79999 2.40002C9.23005 2.40002 11.2 4.36997 11.2 6.80002C11.2 7.79868 10.8673 8.71963 10.3067 9.45808L13.6243 12.7758C13.8586 13.0101 13.8586 13.39 13.6243 13.6243C13.4112 13.8373 13.0779 13.8567 12.843 13.6824L12.7757 13.6243L9.45805 10.3067C8.7196 10.8673 7.79865 11.2 6.79999 11.2C4.36994 11.2 2.39999 9.23008 2.39999 6.80002C2.39999 4.36997 4.36994 2.40002 6.79999 2.40002ZM6.79999 3.60002C5.03268 3.60002 3.59999 5.03271 3.59999 6.80002C3.59999 8.56734 5.03268 10 6.79999 10C8.56731 10 9.99999 8.56734 9.99999 6.80002C9.99999 5.03271 8.56731 3.60002 6.79999 3.60002Z" fill="#2D2D2D"/>
</svg>
