<svg width="22" height="22" viewBox="0 0 22 22" fill="none" xmlns="http://www.w3.org/2000/svg">
<circle cx="11" cy="11" r="10.5" fill="#E53E7A" stroke="white"/>
<path d="M8.808 14.096C8.30133 14.096 7.864 13.976 7.496 13.736C7.13333 13.4907 6.85333 13.152 6.656 12.72C6.464 12.2827 6.368 11.776 6.368 11.2C6.368 10.624 6.464 10.12 6.656 9.688C6.85333 9.25067 7.13333 8.912 7.496 8.672C7.864 8.42667 8.30133 8.304 8.808 8.304C9.31467 8.304 9.74933 8.42667 10.112 8.672C10.4747 8.912 10.752 9.25067 10.944 9.688C11.1413 10.12 11.24 10.624 11.24 11.2C11.24 11.776 11.1413 12.2827 10.944 12.72C10.752 13.152 10.4747 13.4907 10.112 13.736C9.74933 13.976 9.31467 14.096 8.808 14.096ZM8.808 13.336C9.112 13.336 9.38133 13.2507 9.616 13.08C9.856 12.9093 10.0427 12.664 10.176 12.344C10.3093 12.024 10.376 11.6427 10.376 11.2C10.376 10.7573 10.3093 10.376 10.176 10.056C10.0427 9.736 9.856 9.49067 9.616 9.32C9.38133 9.14933 9.112 9.064 8.808 9.064C8.49867 9.064 8.22667 9.14933 7.992 9.32C7.75733 9.49067 7.57333 9.736 7.44 10.056C7.30667 10.376 7.24 10.7573 7.24 11.2C7.24 11.6427 7.30667 12.024 7.44 12.344C7.57333 12.664 7.75733 12.9093 7.992 13.08C8.22667 13.2507 8.49867 13.336 8.808 13.336ZM14.2972 14.096C13.9025 14.096 13.5612 14.0267 13.2732 13.888C12.9852 13.744 12.7559 13.5493 12.5852 13.304C12.4199 13.0533 12.3185 12.7707 12.2812 12.456H13.1132C13.1665 12.7227 13.2999 12.944 13.5132 13.12C13.7265 13.2907 13.9905 13.376 14.3052 13.376C14.5399 13.376 14.7425 13.32 14.9132 13.208C15.0839 13.0907 15.2172 12.936 15.3132 12.744C15.4092 12.552 15.4572 12.336 15.4572 12.096C15.4572 11.7173 15.3505 11.416 15.1372 11.192C14.9239 10.9627 14.6545 10.848 14.3292 10.848C14.0519 10.848 13.8145 10.9147 13.6172 11.048C13.4199 11.176 13.2759 11.3387 13.1852 11.536H12.3772L12.8572 8.4H15.8812V9.144H13.4972L13.2092 10.64C13.3319 10.5013 13.4999 10.3867 13.7132 10.296C13.9319 10.2 14.1772 10.152 14.4492 10.152C14.8279 10.152 15.1532 10.24 15.4252 10.416C15.6972 10.5867 15.9052 10.8187 16.0492 11.112C16.1985 11.4053 16.2732 11.7307 16.2732 12.088C16.2732 12.4613 16.1932 12.8 16.0332 13.104C15.8732 13.408 15.6439 13.6507 15.3452 13.832C15.0519 14.008 14.7025 14.096 14.2972 14.096Z" fill="white"/>
</svg>
