<svg width="22" height="22" viewBox="0 0 22 22" fill="none" xmlns="http://www.w3.org/2000/svg">
<path d="M6.29861 12.5191L3.00004 15.1857V4.51908C3.00004 4.34227 3.07028 4.1727 3.1953 4.04768C3.32032 3.92265 3.48989 3.85242 3.6667 3.85242H14.3334C14.5102 3.85242 14.6797 3.92265 14.8048 4.04768C14.9298 4.1727 15.0001 4.34227 15.0001 4.51908V11.8524C15.0001 12.0292 14.9298 12.1988 14.8048 12.3238C14.6797 12.4489 14.5102 12.5191 14.3334 12.5191H6.29861Z" stroke="black" stroke-width="1.33333" stroke-linecap="round" stroke-linejoin="round"/>
<path d="M7.00007 12.5191V15.8524C7.00007 16.0292 7.07027 16.1988 7.19534 16.3238C7.32034 16.4489 7.48987 16.5191 7.66674 16.5191H15.7015L19.0001 19.1858V8.51908C19.0001 8.34228 18.9298 8.17275 18.8048 8.04768C18.6797 7.92268 18.5102 7.85242 18.3334 7.85242H15.0001" stroke="black" stroke-width="1.33333" stroke-linecap="round" stroke-linejoin="round"/>
</svg>
