<svg width="25" height="25" viewBox="0 0 25 25" fill="none" xmlns="http://www.w3.org/2000/svg">
<path d="M15.7412 5.38831C18.1387 5.38831 20.0823 7.26871 20.0823 9.58831C20.0823 10.6644 19.6612 11.6773 18.9218 12.4468L18.7845 12.5832L12.4701 18.692L12.4317 18.7267L12.3914 18.7581C11.9072 19.1614 11.2886 19.3883 10.6352 19.3883C9.14825 19.3883 7.94285 18.2221 7.94285 16.7835C7.94285 16.1526 8.17657 15.5557 8.59082 15.0885L8.69811 14.9745L8.70902 14.9661L13.9843 9.85346C14.2666 9.57986 14.7247 9.57947 15.0075 9.85259C15.2903 10.1257 15.2907 10.5689 15.0084 10.8425L9.73314 15.9552L9.72523 15.9611C9.51085 16.1828 9.38991 16.4731 9.38991 16.7835C9.38991 17.4489 9.94744 17.9883 10.6352 17.9883C10.9094 17.9883 11.1683 17.9029 11.3813 17.7483L11.4697 17.6778L11.4702 17.6789L17.7667 11.5883L17.8814 11.4732C18.3626 10.9624 18.6353 10.2971 18.6353 9.58831C18.6353 8.04191 17.3395 6.78831 15.7412 6.78831C14.973 6.78831 14.2546 7.07853 13.7188 7.58531L13.6068 7.6972L13.5935 7.70628L6.84634 14.2365C6.56385 14.5099 6.10573 14.51 5.82312 14.2367C5.5405 13.9634 5.54039 13.5202 5.82289 13.2468L12.5582 6.72758L12.5919 6.69746C13.4051 5.86834 14.5341 5.38831 15.7412 5.38831Z" fill="#C8C6D5"/>
</svg>
