<svg width="12" height="10" viewBox="0 0 12 10" fill="none" xmlns="http://www.w3.org/2000/svg">
<path d="M3.02667 6.03657L0.93943 3.99311C0.724519 3.78273 0.376089 3.78273 0.161179 3.99311C-0.0537262 4.2035 -0.0537262 4.54464 0.161179 4.75503L2.63755 7.17944C2.85246 7.38983 3.20089 7.38983 3.4158 7.17944L9.46914 1.2531C9.68403 1.04269 9.68403 0.701573 9.46914 0.491171C9.25424 0.280775 8.90579 0.280775 8.6909 0.491171L3.02667 6.03657Z" fill="#CBCACA"/>
<path d="M4.9388 7.78767L4.44471 7.33737C4.2298 7.12698 3.87803 7.57729 3.66312 7.78767C3.44821 7.99806 3.44824 7.88555 3.66314 8.09594L4.54967 8.93054C4.76459 9.14093 5.11302 9.14093 5.32793 8.93054L11.3813 3.00419C11.5962 2.79379 11.5962 2.45267 11.3813 2.24227C11.1664 2.03187 10.8179 2.03187 10.603 2.24227L4.9388 7.78767Z" fill="#CBCACA"/>
</svg>
