<svg width="25" height="25" viewBox="0 0 25 25" fill="none" xmlns="http://www.w3.org/2000/svg">
<path fill-rule="evenodd" clip-rule="evenodd" d="M15.4749 4.57876L19.0865 8.19035C19.2116 8.31542 19.2819 8.48507 19.2819 8.66197V19.0591C19.2819 19.796 18.6846 20.3933 17.9477 20.3933H7.27441C6.53757 20.3933 5.94025 19.796 5.94025 19.0591V5.71747C5.94025 4.98063 6.53757 4.3833 7.27441 4.3833H15.0032C15.1801 4.38334 15.3498 4.45365 15.4749 4.57876ZM17.6142 19.0591C17.7984 19.0591 17.9477 18.9098 17.9477 18.7256V9.07623C17.9477 8.98794 17.9127 8.90326 17.8504 8.84075L14.8245 5.81486C14.762 5.75251 14.6773 5.71749 14.589 5.71747H7.60795C7.42374 5.71747 7.27441 5.8668 7.27441 6.05101V18.7256C7.27441 18.9098 7.42374 19.0591 7.60795 19.0591H17.6142ZM10.4757 11.0541C11.2126 11.0541 11.8099 10.4568 11.8099 9.71997C11.8099 8.98313 11.2126 8.3858 10.4757 8.3858C9.73891 8.3858 9.14158 8.98313 9.14158 9.71997C9.14158 10.4568 9.73891 11.0541 10.4757 11.0541ZM13.8112 11.3497C13.9262 11.3497 14.0331 11.4089 14.094 11.5064L16.9885 16.1353C17.0208 16.1867 17.0226 16.2517 16.9932 16.3048C16.9638 16.3579 16.9078 16.3909 16.8471 16.3908H8.77535C8.71462 16.3909 8.65864 16.3579 8.62923 16.3048C8.59982 16.2517 8.60162 16.1867 8.63393 16.1353L10.4851 13.1741C10.546 13.0766 10.6529 13.0174 10.7679 13.0174C10.8829 13.0174 10.9898 13.0766 11.0508 13.1741L11.6271 14.096C11.6578 14.1445 11.7112 14.1738 11.7686 14.1738C11.8259 14.1738 11.8793 14.1445 11.91 14.096L13.5283 11.5064C13.5893 11.4089 13.6962 11.3497 13.8112 11.3497Z" fill="#C8C6D5"/>
<mask id="mask0_43_2935" style="mask-type:alpha" maskUnits="userSpaceOnUse" x="5" y="4" width="15" height="17">
<path fill-rule="evenodd" clip-rule="evenodd" d="M15.4749 4.57876L19.0865 8.19035C19.2116 8.31542 19.2819 8.48507 19.2819 8.66197V19.0591C19.2819 19.796 18.6846 20.3933 17.9477 20.3933H7.27441C6.53757 20.3933 5.94025 19.796 5.94025 19.0591V5.71747C5.94025 4.98063 6.53757 4.3833 7.27441 4.3833H15.0032C15.1801 4.38334 15.3498 4.45365 15.4749 4.57876ZM17.6142 19.0591C17.7984 19.0591 17.9477 18.9098 17.9477 18.7256V9.07623C17.9477 8.98794 17.9127 8.90326 17.8504 8.84075L14.8245 5.81486C14.762 5.75251 14.6773 5.71749 14.589 5.71747H7.60795C7.42374 5.71747 7.27441 5.8668 7.27441 6.05101V18.7256C7.27441 18.9098 7.42374 19.0591 7.60795 19.0591H17.6142ZM10.4757 11.0541C11.2126 11.0541 11.8099 10.4568 11.8099 9.71997C11.8099 8.98313 11.2126 8.3858 10.4757 8.3858C9.73891 8.3858 9.14158 8.98313 9.14158 9.71997C9.14158 10.4568 9.73891 11.0541 10.4757 11.0541ZM13.8112 11.3497C13.9262 11.3497 14.0331 11.4089 14.094 11.5064L16.9885 16.1353C17.0208 16.1867 17.0226 16.2517 16.9932 16.3048C16.9638 16.3579 16.9078 16.3909 16.8471 16.3908H8.77535C8.71462 16.3909 8.65864 16.3579 8.62923 16.3048C8.59982 16.2517 8.60162 16.1867 8.63393 16.1353L10.4851 13.1741C10.546 13.0766 10.6529 13.0174 10.7679 13.0174C10.8829 13.0174 10.9898 13.0766 11.0508 13.1741L11.6271 14.096C11.6578 14.1445 11.7112 14.1738 11.7686 14.1738C11.8259 14.1738 11.8793 14.1445 11.91 14.096L13.5283 11.5064C13.5893 11.4089 13.6962 11.3497 13.8112 11.3497Z" fill="white"/>
</mask>
<g mask="url(#mask0_43_2935)">
</g>
</svg>
