<svg width="24" height="25" viewBox="0 0 24 25" fill="none" xmlns="http://www.w3.org/2000/svg">
<path fill-rule="evenodd" clip-rule="evenodd" d="M14.9989 11.8884C14.9989 13.5484 13.6589 14.8884 11.9989 14.8884C10.3389 14.8884 8.99887 13.5484 8.99887 11.8884V5.88843C8.99887 4.22843 10.3389 2.88843 11.9989 2.88843C13.6589 2.88843 14.9989 4.22843 14.9989 5.88843V11.8884ZM16.9287 12.7384C17.0087 12.2484 17.4187 11.8884 17.9087 11.8884C18.5187 11.8884 19.0087 12.4284 18.9087 13.0284C18.4187 16.0284 16.0187 18.3784 12.9987 18.8084V20.8884C12.9987 21.4384 12.5487 21.8884 11.9987 21.8884C11.4487 21.8884 10.9987 21.4384 10.9987 20.8884V18.8084C7.9787 18.3784 5.5787 16.0284 5.0887 13.0284C4.9987 12.4284 5.4787 11.8884 6.0887 11.8884C6.5787 11.8884 6.9887 12.2484 7.0687 12.7384C7.4787 15.0884 9.52871 16.8884 11.9987 16.8884C14.4687 16.8884 16.5187 15.0884 16.9287 12.7384Z" fill="#C8C6D5"/>
</svg>
