<svg width="22" height="22" viewBox="0 0 22 22" fill="none" xmlns="http://www.w3.org/2000/svg">
<rect width="21.3889" height="21.3889" transform="translate(0.611084 0.388306)" fill="white"/>
<path d="M3.82717 2.88783L20.2479 10.9792C20.5128 11.1097 20.6218 11.4303 20.4912 11.6952C20.4391 11.8009 20.3536 11.8864 20.2479 11.9385L3.82751 20.0297C3.56261 20.1603 3.24204 20.0513 3.11151 19.7864C3.05443 19.6706 3.0412 19.538 3.07426 19.4132L5.17967 11.4633L3.07389 3.50426C2.99835 3.21876 3.16856 2.92609 3.45405 2.85055C3.57885 2.81753 3.71138 2.83078 3.82717 2.88783ZM4.40823 4.36638L6.12909 10.8708L6.19538 10.858L6.2643 10.8536H13.7504C14.0457 10.8536 14.2851 11.093 14.2851 11.3883C14.2851 11.6508 14.096 11.8692 13.8465 11.9144L13.7504 11.923H6.2643C6.23072 11.923 6.19785 11.9199 6.16599 11.914L4.4089 18.551L18.8018 11.4589L4.40823 4.36638Z" fill="#0254D7"/>
</svg>
